<svg width="24" height="24" viewBox="0 0 24 24" fill="none" xmlns="http://www.w3.org/2000/svg">
<rect width="24" height="24" rx="5" fill="#52459D"/>
<path d="M11.2899 8.3V16H9.82694L5.98794 11.325V16H4.22794V8.3H5.70194L9.52994 12.975V8.3H11.2899ZM18.3147 12.029H19.9427V15.153C19.5247 15.4683 19.0407 15.7103 18.4907 15.879C17.9407 16.0477 17.3871 16.132 16.8297 16.132C16.0304 16.132 15.3117 15.9633 14.6737 15.626C14.0357 15.2813 13.5334 14.8083 13.1667 14.207C12.8074 13.5983 12.6277 12.9127 12.6277 12.15C12.6277 11.3873 12.8074 10.7053 13.1667 10.104C13.5334 9.49533 14.0394 9.02233 14.6847 8.685C15.3301 8.34033 16.0561 8.168 16.8627 8.168C17.5374 8.168 18.1497 8.28167 18.6997 8.509C19.2497 8.73633 19.7117 9.06633 20.0857 9.499L18.9417 10.555C18.3917 9.97567 17.7281 9.686 16.9507 9.686C16.4594 9.686 16.0231 9.78867 15.6417 9.994C15.2604 10.1993 14.9634 10.489 14.7507 10.863C14.5381 11.237 14.4317 11.666 14.4317 12.15C14.4317 12.6267 14.5381 13.052 14.7507 13.426C14.9634 13.8 15.2567 14.0933 15.6307 14.306C16.0121 14.5113 16.4447 14.614 16.9287 14.614C17.4421 14.614 17.9041 14.504 18.3147 14.284V12.029Z" fill="white"/>
</svg>
